<svg width="21" height="21" viewBox="0 0 21 21" fill="none" xmlns="http://www.w3.org/2000/svg">
<path d="M7.95209 0.50006C6.35345 0.50006 5.05895 1.7795 5.05895 3.35955V5.0393H9.39866C9.79326 5.0393 10.118 5.61026 10.118 6.00027H2.89314C1.2945 6.00027 0 7.27971 0 8.85976V12.6411C0 14.2211 1.2945 15.5006 2.89314 15.5006H4.08676V12.8208C4.08676 11.2407 5.37336 9.96129 6.972 9.96129H12.2839C13.8826 9.96129 15.1771 8.68965 15.1771 7.1096V3.35949C15.1771 1.77944 13.8826 0.5 12.2839 0.5L7.95209 0.50006ZM7.22486 2.10951C7.62958 2.10951 7.95209 2.23045 7.95209 2.82047C7.95209 3.41049 7.62958 3.71112 7.22486 3.71112C6.83026 3.71112 6.50553 3.41049 6.50553 2.82047C6.50553 2.23045 6.83026 2.10951 7.22486 2.10951Z" fill="#E6C430"/>
<path d="M16.1468 5.49951V8.17929C16.1468 9.75934 14.8622 11.0388 13.2636 11.0388H7.95161C6.35297 11.0388 5.05847 12.3084 5.05847 13.8885V17.6386C5.0583 18.0142 5.133 18.3862 5.27831 18.7334C5.42362 19.0805 5.63669 19.3959 5.90535 19.6616C6.17401 19.9273 6.493 20.1381 6.8441 20.282C7.1952 20.4258 7.57154 20.4999 7.95161 20.5H12.2833C12.6634 20.4999 13.0397 20.4258 13.3908 20.282C13.7419 20.1381 14.0609 19.9273 14.3296 19.6616C14.5982 19.3959 14.8113 19.0805 14.9566 18.7334C15.1019 18.3862 15.1766 18.0142 15.1765 17.6386V15.9588H10.8348C10.4402 15.9588 10.1175 15.3898 10.1175 14.9998H17.3423C17.7224 14.9997 18.0987 14.9257 18.4498 14.7818C18.8009 14.638 19.1199 14.4272 19.3886 14.1615C19.6573 13.8957 19.8703 13.5803 20.0156 13.2332C20.1609 12.8861 20.2356 12.5141 20.2355 12.1384V8.35902C20.2353 7.60068 19.9304 6.87346 19.3879 6.33723C18.8454 5.80101 18.1096 5.49969 17.3423 5.49953L16.1468 5.49951ZM6.39435 10.0134L6.3904 10.0173C6.40252 10.0149 6.41577 10.0157 6.42795 10.0134H6.39435ZM13.0106 17.289C13.4052 17.289 13.7299 17.5896 13.7299 18.1796C13.7297 18.3679 13.6537 18.5484 13.5188 18.6814C13.3839 18.8143 13.2011 18.8889 13.0106 18.8886C12.6059 18.8886 12.2834 18.7696 12.2834 18.1796C12.2834 17.5896 12.6059 17.289 13.0106 17.289Z" fill="#E6C430"/>
</svg>
